<?xml version="1.0" standalone="no"?>
<!DOCTYPE svg PUBLIC "-//W3C//DTD SVG 20010904//EN"
 "http://www.w3.org/TR/2001/REC-SVG-20010904/DTD/svg10.dtd">
<svg version="1.0" xmlns="http://www.w3.org/2000/svg"
 width="300.000000pt" height="300.000000pt" viewBox="0 0 300.000000 300.000000"
 preserveAspectRatio="xMidYMid meet">
<metadata>
Created by potrace 1.10, written by Peter Selinger 2001-2011
</metadata>
<g transform="translate(0.000000,300.000000) scale(0.100000,-0.100000)"
fill="#2BA283" stroke="none">
<path d="M1452 2984 c-50 -34 -225 -286 -280 -401 -103 -217 -10 -452 205
-520 50 -16 53 -19 53 -50 0 -18 -3 -33 -8 -33 -4 0 -43 14 -87 31 -169 67
-300 30 -320 -91 -5 -28 1 -67 22 -142 27 -100 28 -110 27 -343 0 -281 -15
-388 -68 -501 -43 -92 -50 -123 -36 -173 12 -45 60 -106 91 -116 16 -6 19 -16
19 -76 l0 -69 -308 0 c-295 0 -310 -1 -327 -20 -25 -27 -16 -94 20 -148 50
-75 194 -169 353 -228 l62 -24 623 0 622 1 93 38 c51 21 118 54 149 72 157 94
243 229 183 289 -19 19 -33 20 -360 20 l-340 0 0 310 c0 228 3 310 12 310 19
0 77 50 93 80 22 43 18 111 -11 187 -36 92 -37 193 -4 278 30 78 37 167 16
200 -29 45 -66 55 -233 65 -86 5 -158 12 -161 14 -2 3 -5 28 -6 55 l-1 50 44
11 c140 35 236 152 256 311 16 127 -58 284 -248 532 -78 101 -100 113 -145 81z
m180 -195 c37 -52 91 -139 119 -194 l51 -100 -4 -100 c-3 -79 -9 -109 -26
-143 -34 -65 -96 -119 -164 -144 -80 -29 -98 -49 -98 -110 0 -38 5 -54 24 -73
26 -26 54 -32 228 -44 92 -6 122 -12 138 -26 28 -25 26 -87 -5 -169 -19 -51
-25 -85 -25 -149 0 -63 6 -101 25 -155 14 -39 25 -91 25 -114 0 -37 -5 -47
-49 -87 -26 -25 -53 -56 -60 -68 -18 -35 -15 -564 3 -608 8 -19 16 -36 18 -37
2 -1 154 -5 338 -8 l335 -5 3 -38 c3 -35 -2 -43 -60 -100 -63 -64 -160 -123
-268 -166 -55 -21 -59 -21 -705 -19 l-650 3 -105 52 c-131 65 -213 129 -243
189 -39 80 -44 79 294 82 285 2 294 3 316 24 19 18 23 32 23 86 l0 65 -55 58
c-52 54 -55 60 -55 109 0 35 8 67 26 101 60 120 90 341 81 616 -4 127 -10 186
-26 243 -11 41 -21 99 -21 128 0 113 90 143 254 86 87 -30 120 -31 140 -2 37
53 6 104 -81 136 -78 28 -135 79 -169 150 -24 49 -28 70 -29 147 0 83 3 96 36
166 42 87 128 219 215 328 l59 73 40 -44 c22 -25 70 -87 107 -139z" fill="#2BA283"/>
<path d="M1447 2840 c-50 -44 -132 -166 -185 -278 -42 -87 -47 -104 -45 -162
1 -80 27 -144 79 -194 49 -47 82 -56 105 -28 12 16 16 33 12 61 -6 44 9 97 44
159 22 36 27 41 41 30 32 -27 62 -111 62 -175 0 -102 41 -121 115 -52 98 90
110 219 35 369 -71 142 -186 300 -219 300 -6 0 -26 -13 -44 -30z m144 -140
c119 -178 151 -289 114 -386 -20 -53 -57 -99 -95 -119 l-27 -14 15 44 c13 40
13 50 -3 97 -21 66 -96 199 -110 195 -5 -2 -34 -49 -62 -105 -54 -105 -63
-145 -43 -198 6 -15 9 -29 6 -31 -2 -3 -27 17 -54 44 -57 55 -89 137 -78 203
11 71 88 216 183 345 l48 65 28 -32 c16 -18 51 -67 78 -108z" fill="#2BA283"/>
<path d="M1119 1941 c-16 -16 -29 -36 -29 -45 0 -8 11 -61 25 -118 33 -132 41
-303 26 -508 -13 -177 -36 -286 -80 -382 -17 -37 -31 -73 -31 -80 0 -30 39
-82 76 -103 l39 -22 5 -90 c8 -141 -10 -133 301 -133 141 0 265 3 274 6 40 16
45 50 45 344 0 311 -2 321 -64 359 -36 22 -62 70 -52 96 9 25 21 17 39 -23 32
-74 109 -91 163 -37 32 32 32 88 -1 180 -34 97 -34 196 1 306 15 46 23 91 20
105 -9 36 -51 51 -166 57 -127 7 -212 25 -379 77 -153 48 -173 49 -212 11z
m203 -51 c167 -53 251 -70 395 -79 67 -4 125 -9 128 -12 3 -3 -7 -39 -22 -80
-19 -53 -27 -100 -30 -164 -4 -90 2 -124 43 -238 20 -57 9 -93 -31 -103 -44
-11 -72 9 -80 56 -9 50 -40 75 -77 61 -28 -11 -38 -29 -38 -72 0 -53 25 -95
74 -124 l46 -27 0 -304 0 -304 -270 0 -270 0 0 98 c0 112 -6 125 -65 144 -62
20 -67 49 -22 145 44 96 63 186 78 374 16 202 7 388 -25 517 -29 117 -31 138
-13 145 27 11 59 5 179 -33z" fill="#2BA283"/>
<path d="M577 402 c-26 -29 -20 -55 21 -94 43 -41 120 -85 214 -122 l68 -26
623 2 623 3 116 58 c114 56 178 108 178 142 0 8 -9 24 -20 35 -20 20 -33 20
-913 20 -853 0 -895 -1 -910 -18z m1813 -32 c0 -17 -81 -71 -180 -119 l-95
-46 -616 -3 -616 -2 -81 34 c-89 38 -176 91 -206 125 l-19 21 906 0 c594 0
907 -3 907 -10z" fill="#2BA283"/>
</g>
</svg>
